<mxfile host="Electron" modified="2023-06-11T15:36:05.545Z" agent="Mozilla/5.0 (X11; Linux x86_64) AppleWebKit/537.36 (KHTML, like Gecko) draw.io/21.2.8 Chrome/112.0.5615.165 Electron/24.2.0 Safari/537.36" etag="y9KlKPp4YfF_1-x8fdnT" version="21.2.8" type="device">
  <diagram name="Page-1" id="ST9B5V44MvGTlTMnRTiq">
    <mxGraphModel dx="1118" dy="622" grid="1" gridSize="10" guides="1" tooltips="1" connect="1" arrows="1" fold="1" page="1" pageScale="1" pageWidth="1100" pageHeight="850" math="0" shadow="0">
      <root>
        <mxCell id="0" />
        <mxCell id="1" parent="0" />
        <mxCell id="LXeVdZAiko-QZrzI7vcj-1" value="" style="group" parent="1" vertex="1" connectable="0">
          <mxGeometry x="80" y="390" width="150" height="95" as="geometry" />
        </mxCell>
        <mxCell id="LXeVdZAiko-QZrzI7vcj-2" value="*" style="text;html=1;align=center;verticalAlign=middle;resizable=0;points=[[0.37,0.6,0,0,0],[0.7,0.6,0,0,0]];autosize=1;strokeColor=none;fillColor=none;fontSize=13;fontFamily=Helvetica;fontColor=none;" parent="LXeVdZAiko-QZrzI7vcj-1" vertex="1">
          <mxGeometry x="60" width="30" height="30" as="geometry" />
        </mxCell>
        <mxCell id="LXeVdZAiko-QZrzI7vcj-3" value="H" style="text;html=1;align=center;verticalAlign=middle;resizable=0;points=[[0.37,0.7,0,0,0],[0.67,0.3,0,0,0],[0.67,0.7,0,0,0]];autosize=1;strokeColor=none;fillColor=none;fontSize=13;fontFamily=Helvetica;fontColor=none;" parent="LXeVdZAiko-QZrzI7vcj-1" vertex="1">
          <mxGeometry x="25" y="30" width="30" height="30" as="geometry" />
        </mxCell>
        <mxCell id="LXeVdZAiko-QZrzI7vcj-4" style="edgeStyle=none;shape=connector;rounded=0;orthogonalLoop=1;jettySize=auto;html=1;entryX=0.67;entryY=0.3;entryDx=0;entryDy=0;entryPerimeter=0;labelBackgroundColor=default;strokeColor=default;strokeWidth=0.7;fontFamily=Helvetica;fontSize=13;fontColor=none;endArrow=none;endFill=0;endSize=2;exitX=0.37;exitY=0.6;exitDx=0;exitDy=0;exitPerimeter=0;" parent="LXeVdZAiko-QZrzI7vcj-1" source="LXeVdZAiko-QZrzI7vcj-2" target="LXeVdZAiko-QZrzI7vcj-3" edge="1">
          <mxGeometry relative="1" as="geometry" />
        </mxCell>
        <mxCell id="LXeVdZAiko-QZrzI7vcj-5" value="4" style="text;html=1;align=center;verticalAlign=middle;resizable=0;points=[[0.7,0.23,0,0,0]];autosize=1;strokeColor=none;fillColor=none;fontSize=13;fontFamily=Helvetica;fontColor=none;" parent="LXeVdZAiko-QZrzI7vcj-1" vertex="1">
          <mxGeometry y="65" width="30" height="30" as="geometry" />
        </mxCell>
        <mxCell id="LXeVdZAiko-QZrzI7vcj-6" style="edgeStyle=none;shape=connector;rounded=0;orthogonalLoop=1;jettySize=auto;html=1;entryX=0.7;entryY=0.23;entryDx=0;entryDy=0;entryPerimeter=0;labelBackgroundColor=default;strokeColor=default;strokeWidth=0.7;fontFamily=Helvetica;fontSize=13;fontColor=none;endArrow=none;endFill=0;endSize=2;exitX=0.37;exitY=0.7;exitDx=0;exitDy=0;exitPerimeter=0;" parent="LXeVdZAiko-QZrzI7vcj-1" source="LXeVdZAiko-QZrzI7vcj-3" target="LXeVdZAiko-QZrzI7vcj-5" edge="1">
          <mxGeometry relative="1" as="geometry" />
        </mxCell>
        <mxCell id="LXeVdZAiko-QZrzI7vcj-7" value="2" style="text;html=1;align=center;verticalAlign=middle;resizable=0;points=[[0.4,0.27,0,0,0]];autosize=1;strokeColor=none;fillColor=none;fontSize=13;fontFamily=Helvetica;fontColor=none;" parent="LXeVdZAiko-QZrzI7vcj-1" vertex="1">
          <mxGeometry x="50" y="65" width="30" height="30" as="geometry" />
        </mxCell>
        <mxCell id="LXeVdZAiko-QZrzI7vcj-8" style="edgeStyle=none;shape=connector;rounded=0;orthogonalLoop=1;jettySize=auto;html=1;entryX=0.4;entryY=0.27;entryDx=0;entryDy=0;entryPerimeter=0;labelBackgroundColor=default;strokeColor=default;strokeWidth=0.7;fontFamily=Helvetica;fontSize=13;fontColor=none;endArrow=none;endFill=0;endSize=2;exitX=0.67;exitY=0.7;exitDx=0;exitDy=0;exitPerimeter=0;" parent="LXeVdZAiko-QZrzI7vcj-1" source="LXeVdZAiko-QZrzI7vcj-3" target="LXeVdZAiko-QZrzI7vcj-7" edge="1">
          <mxGeometry relative="1" as="geometry" />
        </mxCell>
        <mxCell id="LXeVdZAiko-QZrzI7vcj-9" value="V" style="text;html=1;align=center;verticalAlign=middle;resizable=0;points=[[0.37,0.3,0,0,0],[0.37,0.7,0,0,0],[0.67,0.3,0,0,0],[0.67,0.7,0,0,0]];autosize=1;strokeColor=none;fillColor=none;fontSize=13;fontFamily=Helvetica;fontColor=none;" parent="LXeVdZAiko-QZrzI7vcj-1" vertex="1">
          <mxGeometry x="95" y="30" width="30" height="30" as="geometry" />
        </mxCell>
        <mxCell id="LXeVdZAiko-QZrzI7vcj-10" style="edgeStyle=none;shape=connector;rounded=0;orthogonalLoop=1;jettySize=auto;html=1;entryX=0.37;entryY=0.3;entryDx=0;entryDy=0;entryPerimeter=0;labelBackgroundColor=default;strokeColor=default;strokeWidth=0.7;fontFamily=Helvetica;fontSize=13;fontColor=none;endArrow=none;endFill=0;endSize=2;exitX=0.7;exitY=0.6;exitDx=0;exitDy=0;exitPerimeter=0;" parent="LXeVdZAiko-QZrzI7vcj-1" source="LXeVdZAiko-QZrzI7vcj-2" target="LXeVdZAiko-QZrzI7vcj-9" edge="1">
          <mxGeometry relative="1" as="geometry" />
        </mxCell>
        <mxCell id="LXeVdZAiko-QZrzI7vcj-11" value="3" style="text;html=1;align=center;verticalAlign=middle;resizable=0;points=[[0.7,0.23,0,0,0]];autosize=1;strokeColor=none;fillColor=none;fontSize=13;fontFamily=Helvetica;fontColor=none;" parent="LXeVdZAiko-QZrzI7vcj-1" vertex="1">
          <mxGeometry x="70" y="65" width="30" height="30" as="geometry" />
        </mxCell>
        <mxCell id="LXeVdZAiko-QZrzI7vcj-12" style="edgeStyle=none;shape=connector;rounded=0;orthogonalLoop=1;jettySize=auto;html=1;entryX=0.7;entryY=0.23;entryDx=0;entryDy=0;entryPerimeter=0;labelBackgroundColor=default;strokeColor=default;strokeWidth=0.7;fontFamily=Helvetica;fontSize=13;fontColor=none;endArrow=none;endFill=0;endSize=2;exitX=0.37;exitY=0.7;exitDx=0;exitDy=0;exitPerimeter=0;" parent="LXeVdZAiko-QZrzI7vcj-1" source="LXeVdZAiko-QZrzI7vcj-9" target="LXeVdZAiko-QZrzI7vcj-11" edge="1">
          <mxGeometry relative="1" as="geometry" />
        </mxCell>
        <mxCell id="LXeVdZAiko-QZrzI7vcj-13" value="1" style="text;html=1;align=center;verticalAlign=middle;resizable=0;points=[[0.4,0.27,0,0,0]];autosize=1;strokeColor=none;fillColor=none;fontSize=13;fontFamily=Helvetica;fontColor=none;" parent="LXeVdZAiko-QZrzI7vcj-1" vertex="1">
          <mxGeometry x="120" y="65" width="30" height="30" as="geometry" />
        </mxCell>
        <mxCell id="LXeVdZAiko-QZrzI7vcj-14" style="edgeStyle=none;shape=connector;rounded=0;orthogonalLoop=1;jettySize=auto;html=1;entryX=0.4;entryY=0.27;entryDx=0;entryDy=0;entryPerimeter=0;labelBackgroundColor=default;strokeColor=default;strokeWidth=0.7;fontFamily=Helvetica;fontSize=13;fontColor=none;endArrow=none;endFill=0;endSize=2;exitX=0.67;exitY=0.7;exitDx=0;exitDy=0;exitPerimeter=0;" parent="LXeVdZAiko-QZrzI7vcj-1" source="LXeVdZAiko-QZrzI7vcj-9" target="LXeVdZAiko-QZrzI7vcj-13" edge="1">
          <mxGeometry relative="1" as="geometry" />
        </mxCell>
        <mxCell id="LXeVdZAiko-QZrzI7vcj-15" value="&lt;font style=&quot;font-size: 13px;&quot;&gt;unresolved slicing tree&lt;/font&gt;" style="text;html=1;align=center;verticalAlign=middle;resizable=0;points=[];autosize=1;strokeColor=none;fillColor=none;fontSize=13;fontFamily=Helvetica;fontColor=none;" parent="1" vertex="1">
          <mxGeometry x="80" y="365" width="150" height="30" as="geometry" />
        </mxCell>
        <mxCell id="LXeVdZAiko-QZrzI7vcj-26" value="" style="group" parent="1" vertex="1" connectable="0">
          <mxGeometry x="50" y="140" width="150" height="115" as="geometry" />
        </mxCell>
        <mxCell id="LXeVdZAiko-QZrzI7vcj-28" value="1" style="text;html=1;align=center;verticalAlign=middle;resizable=0;points=[[0.37,0.7,0,0,0],[0.67,0.3,0,0,0],[0.67,0.7,0,0,0]];autosize=1;strokeColor=none;fillColor=none;fontSize=13;fontFamily=Helvetica;fontColor=none;" parent="LXeVdZAiko-QZrzI7vcj-26" vertex="1">
          <mxGeometry x="25" y="30" width="30" height="30" as="geometry" />
        </mxCell>
        <mxCell id="LXeVdZAiko-QZrzI7vcj-38" value="" style="group" parent="LXeVdZAiko-QZrzI7vcj-26" vertex="1" connectable="0">
          <mxGeometry x="60" width="90" height="95" as="geometry" />
        </mxCell>
        <mxCell id="LXeVdZAiko-QZrzI7vcj-27" value="V" style="text;html=1;align=center;verticalAlign=middle;resizable=0;points=[[0.37,0.6,0,0,0],[0.7,0.6,0,0,0]];autosize=1;strokeColor=none;fillColor=none;fontSize=13;fontFamily=Helvetica;fontColor=none;" parent="LXeVdZAiko-QZrzI7vcj-38" vertex="1">
          <mxGeometry width="30" height="30" as="geometry" />
        </mxCell>
        <mxCell id="LXeVdZAiko-QZrzI7vcj-29" style="edgeStyle=none;shape=connector;rounded=0;orthogonalLoop=1;jettySize=auto;html=1;entryX=0.67;entryY=0.3;entryDx=0;entryDy=0;entryPerimeter=0;labelBackgroundColor=default;strokeColor=default;strokeWidth=0.7;fontFamily=Helvetica;fontSize=13;fontColor=none;endArrow=none;endFill=0;endSize=2;exitX=0.37;exitY=0.6;exitDx=0;exitDy=0;exitPerimeter=0;" parent="LXeVdZAiko-QZrzI7vcj-38" source="LXeVdZAiko-QZrzI7vcj-27" target="LXeVdZAiko-QZrzI7vcj-28" edge="1">
          <mxGeometry relative="1" as="geometry" />
        </mxCell>
        <mxCell id="LXeVdZAiko-QZrzI7vcj-30" value="*" style="text;html=1;align=center;verticalAlign=middle;resizable=0;points=[[0.37,0.3,0,0,0],[0.37,0.7,0,0,0],[0.67,0.3,0,0,0],[0.67,0.7,0,0,0]];autosize=1;strokeColor=none;fillColor=none;fontSize=13;fontFamily=Helvetica;fontColor=none;" parent="LXeVdZAiko-QZrzI7vcj-38" vertex="1">
          <mxGeometry x="35" y="30" width="30" height="30" as="geometry" />
        </mxCell>
        <mxCell id="LXeVdZAiko-QZrzI7vcj-31" style="edgeStyle=none;shape=connector;rounded=0;orthogonalLoop=1;jettySize=auto;html=1;entryX=0.37;entryY=0.3;entryDx=0;entryDy=0;entryPerimeter=0;labelBackgroundColor=default;strokeColor=default;strokeWidth=0.7;fontFamily=Helvetica;fontSize=13;fontColor=none;endArrow=none;endFill=0;endSize=2;exitX=0.7;exitY=0.6;exitDx=0;exitDy=0;exitPerimeter=0;" parent="LXeVdZAiko-QZrzI7vcj-38" source="LXeVdZAiko-QZrzI7vcj-27" target="LXeVdZAiko-QZrzI7vcj-30" edge="1">
          <mxGeometry relative="1" as="geometry" />
        </mxCell>
        <mxCell id="LXeVdZAiko-QZrzI7vcj-32" value="2" style="text;html=1;align=center;verticalAlign=middle;resizable=0;points=[[0.7,0.23,0,0,0]];autosize=1;strokeColor=none;fillColor=none;fontSize=13;fontFamily=Helvetica;fontColor=none;" parent="LXeVdZAiko-QZrzI7vcj-38" vertex="1">
          <mxGeometry x="10" y="65" width="30" height="30" as="geometry" />
        </mxCell>
        <mxCell id="LXeVdZAiko-QZrzI7vcj-33" style="edgeStyle=none;shape=connector;rounded=0;orthogonalLoop=1;jettySize=auto;html=1;entryX=0.7;entryY=0.23;entryDx=0;entryDy=0;entryPerimeter=0;labelBackgroundColor=default;strokeColor=default;strokeWidth=0.7;fontFamily=Helvetica;fontSize=13;fontColor=none;endArrow=none;endFill=0;endSize=2;exitX=0.37;exitY=0.7;exitDx=0;exitDy=0;exitPerimeter=0;" parent="LXeVdZAiko-QZrzI7vcj-38" source="LXeVdZAiko-QZrzI7vcj-30" target="LXeVdZAiko-QZrzI7vcj-32" edge="1">
          <mxGeometry relative="1" as="geometry" />
        </mxCell>
        <mxCell id="LXeVdZAiko-QZrzI7vcj-34" value="3" style="text;html=1;align=center;verticalAlign=middle;resizable=0;points=[[0.4,0.27,0,0,0]];autosize=1;strokeColor=none;fillColor=none;fontSize=13;fontFamily=Helvetica;fontColor=none;" parent="LXeVdZAiko-QZrzI7vcj-38" vertex="1">
          <mxGeometry x="60" y="65" width="30" height="30" as="geometry" />
        </mxCell>
        <mxCell id="LXeVdZAiko-QZrzI7vcj-35" style="edgeStyle=none;shape=connector;rounded=0;orthogonalLoop=1;jettySize=auto;html=1;entryX=0.4;entryY=0.27;entryDx=0;entryDy=0;entryPerimeter=0;labelBackgroundColor=default;strokeColor=default;strokeWidth=0.7;fontFamily=Helvetica;fontSize=13;fontColor=none;endArrow=none;endFill=0;endSize=2;exitX=0.67;exitY=0.7;exitDx=0;exitDy=0;exitPerimeter=0;" parent="LXeVdZAiko-QZrzI7vcj-38" source="LXeVdZAiko-QZrzI7vcj-30" target="LXeVdZAiko-QZrzI7vcj-34" edge="1">
          <mxGeometry relative="1" as="geometry" />
        </mxCell>
        <mxCell id="LXeVdZAiko-QZrzI7vcj-37" value="&lt;font style=&quot;font-size: 13px;&quot;&gt;slicing tree&lt;/font&gt;" style="text;html=1;align=center;verticalAlign=middle;resizable=0;points=[];autosize=1;strokeColor=none;fillColor=none;fontSize=13;fontFamily=Helvetica;fontColor=none;" parent="1" vertex="1">
          <mxGeometry x="87.5" y="310" width="90" height="30" as="geometry" />
        </mxCell>
        <mxCell id="LXeVdZAiko-QZrzI7vcj-47" value="" style="group" parent="1" vertex="1" connectable="0">
          <mxGeometry x="390" y="140" width="150" height="115" as="geometry" />
        </mxCell>
        <mxCell id="LXeVdZAiko-QZrzI7vcj-48" value="3" style="text;html=1;align=center;verticalAlign=middle;resizable=0;points=[[0.37,0.7,0,0,0],[0.67,0.3,0,0,0],[0.67,0.7,0,0,0]];autosize=1;strokeColor=none;fillColor=none;fontSize=13;fontFamily=Helvetica;fontColor=none;" parent="LXeVdZAiko-QZrzI7vcj-47" vertex="1">
          <mxGeometry x="25" y="40" width="30" height="30" as="geometry" />
        </mxCell>
        <mxCell id="LXeVdZAiko-QZrzI7vcj-49" value="" style="group" parent="LXeVdZAiko-QZrzI7vcj-47" vertex="1" connectable="0">
          <mxGeometry x="60" y="10" width="90" height="95" as="geometry" />
        </mxCell>
        <mxCell id="LXeVdZAiko-QZrzI7vcj-50" value="V" style="text;html=1;align=center;verticalAlign=middle;resizable=0;points=[[0.37,0.6,0,0,0],[0.7,0.6,0,0,0]];autosize=1;strokeColor=none;fillColor=none;fontSize=13;fontFamily=Helvetica;fontColor=none;" parent="LXeVdZAiko-QZrzI7vcj-49" vertex="1">
          <mxGeometry width="30" height="30" as="geometry" />
        </mxCell>
        <mxCell id="LXeVdZAiko-QZrzI7vcj-51" value="&lt;b&gt;H&lt;/b&gt;" style="text;html=1;align=center;verticalAlign=middle;resizable=0;points=[[0.37,0.3,0,0,0],[0.37,0.7,0,0,0],[0.67,0.3,0,0,0],[0.67,0.7,0,0,0]];autosize=1;strokeColor=none;fillColor=none;fontSize=13;fontFamily=Helvetica;fontColor=none;" parent="LXeVdZAiko-QZrzI7vcj-49" vertex="1">
          <mxGeometry x="35" y="30" width="30" height="30" as="geometry" />
        </mxCell>
        <mxCell id="LXeVdZAiko-QZrzI7vcj-52" style="edgeStyle=none;shape=connector;rounded=0;orthogonalLoop=1;jettySize=auto;html=1;entryX=0.37;entryY=0.3;entryDx=0;entryDy=0;entryPerimeter=0;labelBackgroundColor=default;strokeColor=default;strokeWidth=0.7;fontFamily=Helvetica;fontSize=13;fontColor=none;endArrow=none;endFill=0;endSize=2;exitX=0.7;exitY=0.6;exitDx=0;exitDy=0;exitPerimeter=0;" parent="LXeVdZAiko-QZrzI7vcj-49" source="LXeVdZAiko-QZrzI7vcj-50" target="LXeVdZAiko-QZrzI7vcj-51" edge="1">
          <mxGeometry relative="1" as="geometry" />
        </mxCell>
        <mxCell id="LXeVdZAiko-QZrzI7vcj-53" value="2" style="text;html=1;align=center;verticalAlign=middle;resizable=0;points=[[0.7,0.23,0,0,0]];autosize=1;strokeColor=none;fillColor=none;fontSize=13;fontFamily=Helvetica;fontColor=none;" parent="LXeVdZAiko-QZrzI7vcj-49" vertex="1">
          <mxGeometry x="10" y="65" width="30" height="30" as="geometry" />
        </mxCell>
        <mxCell id="LXeVdZAiko-QZrzI7vcj-54" style="edgeStyle=none;shape=connector;rounded=0;orthogonalLoop=1;jettySize=auto;html=1;entryX=0.7;entryY=0.23;entryDx=0;entryDy=0;entryPerimeter=0;labelBackgroundColor=default;strokeColor=default;strokeWidth=0.7;fontFamily=Helvetica;fontSize=13;fontColor=none;endArrow=none;endFill=0;endSize=2;exitX=0.37;exitY=0.7;exitDx=0;exitDy=0;exitPerimeter=0;" parent="LXeVdZAiko-QZrzI7vcj-49" source="LXeVdZAiko-QZrzI7vcj-51" target="LXeVdZAiko-QZrzI7vcj-53" edge="1">
          <mxGeometry relative="1" as="geometry" />
        </mxCell>
        <mxCell id="LXeVdZAiko-QZrzI7vcj-55" value="1" style="text;html=1;align=center;verticalAlign=middle;resizable=0;points=[[0.4,0.27,0,0,0]];autosize=1;strokeColor=none;fillColor=none;fontSize=13;fontFamily=Helvetica;fontColor=none;" parent="LXeVdZAiko-QZrzI7vcj-49" vertex="1">
          <mxGeometry x="60" y="65" width="30" height="30" as="geometry" />
        </mxCell>
        <mxCell id="LXeVdZAiko-QZrzI7vcj-56" style="edgeStyle=none;shape=connector;rounded=0;orthogonalLoop=1;jettySize=auto;html=1;entryX=0.4;entryY=0.27;entryDx=0;entryDy=0;entryPerimeter=0;labelBackgroundColor=default;strokeColor=default;strokeWidth=0.7;fontFamily=Helvetica;fontSize=13;fontColor=none;endArrow=none;endFill=0;endSize=2;exitX=0.67;exitY=0.7;exitDx=0;exitDy=0;exitPerimeter=0;" parent="LXeVdZAiko-QZrzI7vcj-49" source="LXeVdZAiko-QZrzI7vcj-51" target="LXeVdZAiko-QZrzI7vcj-55" edge="1">
          <mxGeometry relative="1" as="geometry" />
        </mxCell>
        <mxCell id="LXeVdZAiko-QZrzI7vcj-58" style="edgeStyle=none;shape=connector;rounded=0;orthogonalLoop=1;jettySize=auto;html=1;entryX=0.67;entryY=0.3;entryDx=0;entryDy=0;entryPerimeter=0;labelBackgroundColor=default;strokeColor=default;strokeWidth=0.7;fontFamily=Helvetica;fontSize=13;fontColor=none;endArrow=none;endFill=0;endSize=2;exitX=0.37;exitY=0.6;exitDx=0;exitDy=0;exitPerimeter=0;" parent="LXeVdZAiko-QZrzI7vcj-47" source="LXeVdZAiko-QZrzI7vcj-50" target="LXeVdZAiko-QZrzI7vcj-48" edge="1">
          <mxGeometry relative="1" as="geometry" />
        </mxCell>
        <mxCell id="z9-qhsUpx_ctc9Qwrk48-1" value="" style="group" parent="1" vertex="1" connectable="0">
          <mxGeometry x="380" y="250" width="185" height="105" as="geometry" />
        </mxCell>
        <mxCell id="LXeVdZAiko-QZrzI7vcj-16" value="" style="rounded=0;whiteSpace=wrap;html=1;" parent="z9-qhsUpx_ctc9Qwrk48-1" vertex="1">
          <mxGeometry width="61.92468619246861" height="105" as="geometry" />
        </mxCell>
        <mxCell id="LXeVdZAiko-QZrzI7vcj-17" value="" style="rounded=0;whiteSpace=wrap;html=1;" parent="z9-qhsUpx_ctc9Qwrk48-1" vertex="1">
          <mxGeometry x="61.92468619246861" width="123.07531380753137" height="105" as="geometry" />
        </mxCell>
        <mxCell id="LXeVdZAiko-QZrzI7vcj-18" value="3" style="text;html=1;strokeColor=none;fillColor=none;align=center;verticalAlign=middle;whiteSpace=wrap;rounded=0;" parent="z9-qhsUpx_ctc9Qwrk48-1" vertex="1">
          <mxGeometry x="7.740585774058577" y="42.65625" width="46.44351464435146" height="19.6875" as="geometry" />
        </mxCell>
        <mxCell id="LXeVdZAiko-QZrzI7vcj-20" value="2" style="text;html=1;strokeColor=none;fillColor=none;align=center;verticalAlign=middle;whiteSpace=wrap;rounded=0;" parent="z9-qhsUpx_ctc9Qwrk48-1" vertex="1">
          <mxGeometry x="100.24058577405857" y="26.25" width="46.44351464435146" height="19.6875" as="geometry" />
        </mxCell>
        <mxCell id="LXeVdZAiko-QZrzI7vcj-21" value="1" style="text;html=1;strokeColor=none;fillColor=none;align=center;verticalAlign=middle;whiteSpace=wrap;rounded=0;" parent="z9-qhsUpx_ctc9Qwrk48-1" vertex="1">
          <mxGeometry x="100.24058577405857" y="83.34375" width="46.44351464435146" height="17.0625" as="geometry" />
        </mxCell>
        <mxCell id="LXeVdZAiko-QZrzI7vcj-19" value="" style="endArrow=none;html=1;rounded=0;exitX=1;exitY=0.75;exitDx=0;exitDy=0;entryX=0;entryY=0.75;entryDx=0;entryDy=0;" parent="z9-qhsUpx_ctc9Qwrk48-1" source="LXeVdZAiko-QZrzI7vcj-17" target="LXeVdZAiko-QZrzI7vcj-17" edge="1">
          <mxGeometry width="50" height="50" relative="1" as="geometry">
            <mxPoint x="359.93723849372384" y="187.03125" as="sourcePoint" />
            <mxPoint x="398.6401673640167" y="154.21875" as="targetPoint" />
          </mxGeometry>
        </mxCell>
        <mxCell id="LXeVdZAiko-QZrzI7vcj-57" value="slicing layout" style="text;html=1;strokeColor=none;fillColor=none;align=center;verticalAlign=middle;whiteSpace=wrap;rounded=0;" parent="1" vertex="1">
          <mxGeometry x="80" y="280" width="105" height="30" as="geometry" />
        </mxCell>
        <mxCell id="z9-qhsUpx_ctc9Qwrk48-13" value="" style="group" parent="1" vertex="1" connectable="0">
          <mxGeometry x="590" y="250" width="185" height="105" as="geometry" />
        </mxCell>
        <mxCell id="z9-qhsUpx_ctc9Qwrk48-14" value="" style="rounded=0;whiteSpace=wrap;html=1;" parent="z9-qhsUpx_ctc9Qwrk48-13" vertex="1">
          <mxGeometry width="61.92468619246861" height="105" as="geometry" />
        </mxCell>
        <mxCell id="z9-qhsUpx_ctc9Qwrk48-15" value="" style="rounded=0;whiteSpace=wrap;html=1;" parent="z9-qhsUpx_ctc9Qwrk48-13" vertex="1">
          <mxGeometry x="61.92468619246861" width="123.07531380753137" height="105" as="geometry" />
        </mxCell>
        <mxCell id="z9-qhsUpx_ctc9Qwrk48-16" value="3" style="text;html=1;strokeColor=none;fillColor=none;align=center;verticalAlign=middle;whiteSpace=wrap;rounded=0;" parent="z9-qhsUpx_ctc9Qwrk48-13" vertex="1">
          <mxGeometry x="7.740585774058577" y="42.65625" width="46.44351464435146" height="19.6875" as="geometry" />
        </mxCell>
        <mxCell id="z9-qhsUpx_ctc9Qwrk48-17" value="2" style="text;html=1;strokeColor=none;fillColor=none;align=center;verticalAlign=middle;whiteSpace=wrap;rounded=0;" parent="z9-qhsUpx_ctc9Qwrk48-13" vertex="1">
          <mxGeometry x="84.3723849372385" y="42.65625" width="46.44351464435146" height="19.6875" as="geometry" />
        </mxCell>
        <mxCell id="z9-qhsUpx_ctc9Qwrk48-18" value="1" style="text;html=1;strokeColor=none;fillColor=none;align=center;verticalAlign=middle;whiteSpace=wrap;rounded=0;" parent="z9-qhsUpx_ctc9Qwrk48-13" vertex="1">
          <mxGeometry x="146.2970711297071" y="42.65625" width="46.44351464435146" height="17.0625" as="geometry" />
        </mxCell>
        <mxCell id="z9-qhsUpx_ctc9Qwrk48-19" value="" style="endArrow=none;html=1;rounded=0;exitX=0.696;exitY=0.997;exitDx=0;exitDy=0;entryX=0.696;entryY=0.001;entryDx=0;entryDy=0;entryPerimeter=0;exitPerimeter=0;" parent="z9-qhsUpx_ctc9Qwrk48-13" source="z9-qhsUpx_ctc9Qwrk48-15" target="z9-qhsUpx_ctc9Qwrk48-15" edge="1">
          <mxGeometry width="50" height="50" relative="1" as="geometry">
            <mxPoint x="359.93723849372384" y="187.03125" as="sourcePoint" />
            <mxPoint x="398.6401673640167" y="154.21875" as="targetPoint" />
          </mxGeometry>
        </mxCell>
        <mxCell id="z9-qhsUpx_ctc9Qwrk48-20" value="" style="group" parent="1" vertex="1" connectable="0">
          <mxGeometry x="620" y="150" width="125" height="95" as="geometry" />
        </mxCell>
        <mxCell id="z9-qhsUpx_ctc9Qwrk48-3" value="3" style="text;html=1;align=center;verticalAlign=middle;resizable=0;points=[[0.37,0.7,0,0,0],[0.67,0.3,0,0,0],[0.67,0.7,0,0,0]];autosize=1;strokeColor=none;fillColor=none;fontSize=13;fontFamily=Helvetica;fontColor=none;" parent="z9-qhsUpx_ctc9Qwrk48-20" vertex="1">
          <mxGeometry y="30" width="30" height="30" as="geometry" />
        </mxCell>
        <mxCell id="z9-qhsUpx_ctc9Qwrk48-4" value="" style="group" parent="z9-qhsUpx_ctc9Qwrk48-20" vertex="1" connectable="0">
          <mxGeometry x="35" width="90" height="95" as="geometry" />
        </mxCell>
        <mxCell id="z9-qhsUpx_ctc9Qwrk48-5" value="V" style="text;html=1;align=center;verticalAlign=middle;resizable=0;points=[[0.37,0.6,0,0,0],[0.7,0.6,0,0,0]];autosize=1;strokeColor=none;fillColor=none;fontSize=13;fontFamily=Helvetica;fontColor=none;" parent="z9-qhsUpx_ctc9Qwrk48-4" vertex="1">
          <mxGeometry width="30" height="30" as="geometry" />
        </mxCell>
        <mxCell id="z9-qhsUpx_ctc9Qwrk48-6" value="&lt;b&gt;V&lt;/b&gt;" style="text;html=1;align=center;verticalAlign=middle;resizable=0;points=[[0.37,0.3,0,0,0],[0.37,0.7,0,0,0],[0.67,0.3,0,0,0],[0.67,0.7,0,0,0]];autosize=1;strokeColor=none;fillColor=none;fontSize=13;fontFamily=Helvetica;fontColor=none;" parent="z9-qhsUpx_ctc9Qwrk48-4" vertex="1">
          <mxGeometry x="35" y="30" width="30" height="30" as="geometry" />
        </mxCell>
        <mxCell id="z9-qhsUpx_ctc9Qwrk48-7" style="edgeStyle=none;shape=connector;rounded=0;orthogonalLoop=1;jettySize=auto;html=1;entryX=0.37;entryY=0.3;entryDx=0;entryDy=0;entryPerimeter=0;labelBackgroundColor=default;strokeColor=default;strokeWidth=0.7;fontFamily=Helvetica;fontSize=13;fontColor=none;endArrow=none;endFill=0;endSize=2;exitX=0.7;exitY=0.6;exitDx=0;exitDy=0;exitPerimeter=0;" parent="z9-qhsUpx_ctc9Qwrk48-4" source="z9-qhsUpx_ctc9Qwrk48-5" target="z9-qhsUpx_ctc9Qwrk48-6" edge="1">
          <mxGeometry relative="1" as="geometry" />
        </mxCell>
        <mxCell id="z9-qhsUpx_ctc9Qwrk48-8" value="2" style="text;html=1;align=center;verticalAlign=middle;resizable=0;points=[[0.7,0.23,0,0,0]];autosize=1;strokeColor=none;fillColor=none;fontSize=13;fontFamily=Helvetica;fontColor=none;" parent="z9-qhsUpx_ctc9Qwrk48-4" vertex="1">
          <mxGeometry x="10" y="65" width="30" height="30" as="geometry" />
        </mxCell>
        <mxCell id="z9-qhsUpx_ctc9Qwrk48-9" style="edgeStyle=none;shape=connector;rounded=0;orthogonalLoop=1;jettySize=auto;html=1;entryX=0.7;entryY=0.23;entryDx=0;entryDy=0;entryPerimeter=0;labelBackgroundColor=default;strokeColor=default;strokeWidth=0.7;fontFamily=Helvetica;fontSize=13;fontColor=none;endArrow=none;endFill=0;endSize=2;exitX=0.37;exitY=0.7;exitDx=0;exitDy=0;exitPerimeter=0;" parent="z9-qhsUpx_ctc9Qwrk48-4" source="z9-qhsUpx_ctc9Qwrk48-6" target="z9-qhsUpx_ctc9Qwrk48-8" edge="1">
          <mxGeometry relative="1" as="geometry" />
        </mxCell>
        <mxCell id="z9-qhsUpx_ctc9Qwrk48-10" value="1" style="text;html=1;align=center;verticalAlign=middle;resizable=0;points=[[0.4,0.27,0,0,0]];autosize=1;strokeColor=none;fillColor=none;fontSize=13;fontFamily=Helvetica;fontColor=none;" parent="z9-qhsUpx_ctc9Qwrk48-4" vertex="1">
          <mxGeometry x="60" y="65" width="30" height="30" as="geometry" />
        </mxCell>
        <mxCell id="z9-qhsUpx_ctc9Qwrk48-11" style="edgeStyle=none;shape=connector;rounded=0;orthogonalLoop=1;jettySize=auto;html=1;entryX=0.4;entryY=0.27;entryDx=0;entryDy=0;entryPerimeter=0;labelBackgroundColor=default;strokeColor=default;strokeWidth=0.7;fontFamily=Helvetica;fontSize=13;fontColor=none;endArrow=none;endFill=0;endSize=2;exitX=0.67;exitY=0.7;exitDx=0;exitDy=0;exitPerimeter=0;" parent="z9-qhsUpx_ctc9Qwrk48-4" source="z9-qhsUpx_ctc9Qwrk48-6" target="z9-qhsUpx_ctc9Qwrk48-10" edge="1">
          <mxGeometry relative="1" as="geometry" />
        </mxCell>
        <mxCell id="z9-qhsUpx_ctc9Qwrk48-12" style="edgeStyle=none;shape=connector;rounded=0;orthogonalLoop=1;jettySize=auto;html=1;entryX=0.67;entryY=0.3;entryDx=0;entryDy=0;entryPerimeter=0;labelBackgroundColor=default;strokeColor=default;strokeWidth=0.7;fontFamily=Helvetica;fontSize=13;fontColor=none;endArrow=none;endFill=0;endSize=2;exitX=0.37;exitY=0.6;exitDx=0;exitDy=0;exitPerimeter=0;" parent="z9-qhsUpx_ctc9Qwrk48-20" source="z9-qhsUpx_ctc9Qwrk48-5" target="z9-qhsUpx_ctc9Qwrk48-3" edge="1">
          <mxGeometry relative="1" as="geometry" />
        </mxCell>
      </root>
    </mxGraphModel>
  </diagram>
</mxfile>
